<?xml version="1.0" encoding="UTF-8"?>
<svg width="34px" height="32px" viewBox="0 0 34 32" version="1.1" xmlns="http://www.w3.org/2000/svg" xmlns:xlink="http://www.w3.org/1999/xlink">
    <!-- Generator: Sketch 40.3 (33839) - http://www.bohemiancoding.com/sketch -->
    <title>buscar</title>
    <desc>Created with Sketch.</desc>
    <defs></defs>
    <g id="Page-1" stroke="none" stroke-width="1" fill="none" fill-rule="evenodd">
        <g id="Desktop-HD" transform="translate(-728.000000, -907.000000)" fill="#666666">
            <path d="M743.481695,935.132435 C736.128384,935.132435 730.146713,929.14554 730.146713,921.786243 C730.146713,914.426946 736.128384,908.439331 743.481695,908.439331 C750.834286,908.439331 756.815957,914.426946 756.815957,921.786243 C756.815957,929.14554 750.834286,935.132435 743.481695,935.132435 M761.057532,937.700201 L754.43394,931.674444 C756.800125,929.051264 758.255243,925.589674 758.255243,921.786243 C758.255243,913.633155 751.628052,907 743.481695,907 C735.335338,907 728.707427,913.633155 728.707427,921.786243 C728.707427,929.938611 735.335338,936.571766 743.481695,936.571766 C747.310195,936.571766 750.791107,935.094293 753.418524,932.695649 L760.088893,938.764586 C760.227065,938.890527 760.400499,938.952418 760.573213,938.952418 C760.768236,938.952418 760.963259,938.872536 761.105029,938.716368 C761.372736,938.422745 761.351147,937.967197 761.057532,937.700201" id="buscar"></path>
        </g>
    </g>
</svg>