<?xml version="1.0" encoding="UTF-8"?>
<svg width="32px" height="30px" viewBox="0 0 32 30" version="1.1" xmlns="http://www.w3.org/2000/svg" xmlns:xlink="http://www.w3.org/1999/xlink">
    <!-- Generator: Sketch 41.2 (35397) - http://www.bohemiancoding.com/sketch -->
    <title>career</title>
    <desc>Created with Sketch.</desc>
    <defs></defs>
    <g id="Page-1" stroke="none" stroke-width="1" fill="none" fill-rule="evenodd">
        <g id="Desktop-HD" transform="translate(-95.000000, -326.000000)" fill="#FEFEFE">
            <g id="career" transform="translate(95.000000, 326.000000)">
                <path d="M4.21744762,22.923385 C4.79257687,22.3563102 5.36988299,21.7911946 5.94261769,21.2212898 C8.92906667,18.2489905 11.9139918,15.2756027 14.8997878,12.302868 C14.9502912,12.2528 15.0027537,12.2051265 15.0508626,12.1591946 C16.0955429,13.1949497 17.1328218,14.2226503 18.1687946,15.2494803 C20.7740735,12.622215 23.3708626,10.0030041 25.9887673,7.36333061 C24.9210122,6.29971156 23.7938286,5.17666395 22.6305088,4.01748027 L31.7970939,4.01748027 L31.7970939,13.1139701 C30.6949442,12.004419 29.5875701,10.8898612 28.4399238,9.73481361 C25.0087401,13.2067048 21.6326313,16.622868 18.2717605,20.0233578 C17.1652571,18.9281741 16.1277605,17.9015619 15.0545633,16.8396844 C12.2407401,19.6883374 9.44737959,22.5165279 6.6311619,25.3680109 C6.03078095,24.7634939 5.50376054,24.2288544 4.97216871,23.6990041 C4.72552925,23.4536707 4.46931156,23.217698 4.21744762,22.9773714 L4.21744762,22.923385 Z" id="Fill-1"></path>
                <g id="Group-5" transform="translate(0.000000, 0.215510)">
                    <path d="M23.9444898,2.76059864 C23.5430748,2.69268027 23.1342585,2.63085714 22.7287075,2.63020408 C17.1927075,2.62193197 11.6569252,2.62672109 6.12092517,2.6232381 C4.95564626,2.62258503 4.00065306,3.0407619 3.28380952,3.9755102 C2.81469388,4.58742857 2.63662585,5.28859864 2.63640816,6.04353741 C2.63466667,11.6616054 2.63488435,17.2792381 2.63597279,22.8973061 C2.63640816,24.3627755 3.31341497,25.4257415 4.62432653,26.0420136 C5.02878912,26.2322721 5.52010884,26.3147755 5.9722449,26.3160816 C11.6447347,26.333932 17.3174422,26.3367619 22.9897143,26.3217415 C24.4144762,26.3180408 25.4382585,25.608381 26.0547483,24.3349116 C26.2743946,23.8819048 26.3370884,23.3801361 26.3364354,22.8737959 C26.3344762,21.2437551 26.3390476,15.7717551 26.3331701,14.141932 C26.3320816,13.8530612 26.4019592,13.6153469 26.6189932,13.409415 C27.0280272,13.0214966 27.4187755,12.6142041 27.8201905,12.2177959 C28.0361361,12.0046803 28.284517,11.9567891 28.5714286,12.0721633 C28.8487619,12.183619 28.9541224,12.403483 28.9539048,12.6751565 C28.9525986,14.9785034 28.9856871,21.1253333 28.9271293,23.4273741 C28.8807619,25.2417959 27.9949932,26.6578503 26.5828571,27.7652245 C25.5137959,28.6035374 24.2888707,28.9520544 22.9477007,28.9518367 C20.1889524,28.9514014 17.4299864,28.951619 14.6710204,28.9518367 C11.8032109,28.9520544 8.93496599,28.9529252 6.06672109,28.9514014 C5.3254966,28.9511837 4.59885714,28.8636735 3.8955102,28.6057143 C2.80598639,28.2056054 1.92544218,27.5242449 1.21730612,26.6193197 C0.355047619,25.5167347 -0.00282993197,24.2517551 -3.38813179e-21,22.856381 C0.0108843537,17.2385306 0.00957823129,11.6206803 0.00195918367,6.00282993 C-0.000870748299,4.10568707 0.739047619,2.55902041 2.16946939,1.34497959 C3.25028571,0.427646259 4.52462585,0.00206802721 5.94263946,0.00228571429 C11.6331973,0.00315646259 17.3239728,0.000979591837 23.0147483,0.00424489796 C23.7851429,0.00468027211 24.5348571,0.134857143 25.2503946,0.433306122 C25.9082449,0.706938776 27.0378231,2.20266667 26.5515102,2.71205442" id="Fill-3"></path>
                </g>
            </g>
        </g>
    </g>
</svg>