<?xml version="1.0" encoding="UTF-8"?>
<svg width="32px" height="32px" viewBox="0 0 32 32" version="1.1" xmlns="http://www.w3.org/2000/svg" xmlns:xlink="http://www.w3.org/1999/xlink">
    <!-- Generator: Sketch 41.2 (35397) - http://www.bohemiancoding.com/sketch -->
    <title>competencies</title>
    <desc>Created with Sketch.</desc>
    <defs>
        <polygon id="path-1" points="0 0.00278493955 0 31.7611224 31.771934 31.7611224 31.771934 0.00278493955 0 0.00278493955"></polygon>
    </defs>
    <g id="Page-1" stroke="none" stroke-width="1" fill="none" fill-rule="evenodd">
        <g id="Desktop-HD" transform="translate(-92.000000, -443.000000)">
            <g id="competencies" transform="translate(92.000000, 443.000000)">
                <path d="M23.8831522,12.717206 C23.2801672,13.5339224 22.8109134,14.3802507 22.9704358,15.4672955 C23.0401672,15.9425194 22.9059582,16.4585791 22.4355104,16.693803 C21.3754507,17.224191 20.5563463,17.983594 19.9421373,19.2349373 C19.6596299,18.4624 19.4129433,17.8742209 19.2472119,17.2638328 C19.2123463,17.1353552 19.449003,16.8977433 19.6035104,16.7585194 C21.3157493,15.2179821 22.0297791,13.3101612 21.5163463,11.0632358 C21.0115104,8.85260896 19.6025552,7.39231045 17.4074507,6.75995224 C14.8264358,6.01678806 12.0527045,7.22371343 10.778197,9.60914627 C9.50440597,11.9931463 10.0462567,14.9696239 12.1157493,16.6887881 C12.5296,17.0326687 12.6036299,17.317803 12.3848836,17.7765493 C12.1928836,18.1786985 12.0627343,18.6106985 11.7296,19.1594746 C11.6861373,19.0450866 11.6567642,18.9225791 11.5968239,18.8177433 C11.1106149,17.9647284 10.4971224,17.256191 9.56052537,16.8523701 C8.96900299,16.597803 8.72876418,16.0578627 8.79085373,15.4379224 C8.87419701,14.6021015 8.69819701,13.8656239 8.19622687,13.1857433 C7.78739104,12.6324299 7.78524179,12.0289672 8.19527164,11.4730269 C8.68195821,10.8127284 8.87849552,10.1008478 8.79061493,9.2822209 C8.71562985,8.58275821 9.00100299,8.02944478 9.66440597,7.74192239 C10.4381373,7.40663881 10.9709134,6.85905672 11.3088239,6.09105672 C11.5526448,5.53702687 12.0037493,5.16950448 12.6112716,5.2464 C13.7341373,5.38872836 14.6449433,4.9622209 15.5158687,4.34992239 L16.2542567,4.34992239 C17.122794,4.96556418 18.0345552,5.39016119 19.1557493,5.24592239 C19.7338985,5.17165373 20.1928836,5.50383284 20.4266746,6.03684776 C20.7820179,6.8464 21.3410627,7.42048955 22.1525254,7.77272836 C22.745003,8.02992239 23.0573612,8.53881791 22.9680478,9.15398209 C22.8063761,10.2680119 23.3016597,11.1277134 23.8831522,11.9788179 L23.8831522,12.717206 Z" id="Fill-1" fill="#FEFEFE"></path>
                <path d="M15.880597,7.0702806 C18.7496119,7.06956418 21.1314627,9.43708657 21.1500896,12.3080119 C21.1687164,15.1789373 18.7226269,17.6190567 15.8557612,17.5896836 C12.9819701,17.5600716 10.6118209,15.1720119 10.6187463,12.3132657 C10.6254328,9.44831045 13.0111045,7.07099701 15.880597,7.0702806" id="Fill-3" fill="#FEFEFE"></path>
                <path d="M12.6448239,27.8860418 C11.9959881,26.4873552 11.411391,25.2570269 10.8642866,24.0104597 C10.7871522,23.8342209 10.8506746,23.5619821 10.9225552,23.360191 C11.5668537,21.5531463 12.2357493,19.7551761 12.8771821,17.9471761 C13.0171224,17.5526687 13.162794,17.4726687 13.5893015,17.616191 C14.3938388,17.8874746 15.2351522,18.0501015 16.1392716,18.2776836 C15.0111522,21.3790567 13.8589134,24.5477731 12.6448239,27.8860418" id="Fill-5" fill="#FEFEFE"></path>
                <path d="M19.1364299,27.8527045 C19.0041313,27.5286448 18.9229373,27.3469134 18.8551164,27.160406 C18.0508179,24.9512119 17.2897433,22.7248239 16.4255045,20.5395104 C16.0687284,19.6368239 16.4252657,18.9218388 16.7973254,18.2221373 C16.9348776,17.9632716 17.463594,17.9021373 17.821803,17.7731821 C18.7072955,17.4548537 18.7101612,17.4596299 19.0289672,18.3343761 C19.6099821,19.9286448 20.1766687,21.528406 20.7784597,23.114794 C20.967594,23.6136597 20.9446687,24.0396896 20.7037134,24.5184955 C20.1740418,25.5723463 19.6964299,26.6524657 19.1364299,27.8527045" id="Fill-7" fill="#FEFEFE"></path>
                <g id="Group-11" transform="translate(0.000000, 0.236179)">
                    <mask id="mask-2" fill="white">
                        <use xlink:href="#path-1"></use>
                    </mask>
                    <g id="Clip-10"></g>
                    <path d="M27.9333015,27.6911522 C27.6039881,28.0407642 27.191809,28.3349731 26.6938985,28.569003 C26.2499582,28.7777194 25.7109731,28.8682269 25.2152119,28.8696597 C22.1052418,28.8794507 18.9945552,28.8849433 15.8843463,28.8861373 C12.7736597,28.8849433 9.66249552,28.8794507 6.55180896,28.8696597 C6.05580896,28.8682269 5.51706269,28.7777194 5.07288358,28.569003 C4.6177194,28.3550328 4.23276418,28.0916299 3.91825672,27.7809433 C3.63527164,27.4771821 3.39121194,27.115391 3.18870448,26.6962866 C3.18130149,26.6812418 3.17533134,26.6652418 3.16840597,26.6499582 C2.98595821,26.1952716 2.89210746,25.6854209 2.89186866,25.1189731 C2.89067463,18.9561075 2.89043582,12.793003 2.89234627,6.63013731 C2.89258507,5.80195821 3.08768955,5.03276418 3.60231642,4.3614806 C4.15706269,3.63837612 4.84386866,3.20255522 5.64768955,3.00530149 C6.04124179,2.94082388 6.44028657,2.88637612 6.83670448,2.8856597 C9.85258507,2.88112239 12.8684657,2.88016716 15.8843463,2.87992836 C18.9009433,2.88016716 21.9175403,2.88112239 24.9338985,2.8856597 C25.3269731,2.88637612 25.722197,2.93986866 26.1126448,3.00362985 C26.9190925,3.19992836 27.6080478,3.63646567 28.1639881,4.3614806 C28.6786149,5.03276418 28.8737194,5.80195821 28.8739582,6.63013731 C28.8758687,12.793003 28.8756299,18.9561075 28.874197,25.1189731 C28.874197,25.7136 28.7722269,26.2470925 28.571391,26.7182567 C28.3903761,27.0876896 28.1771224,27.4122269 27.9333015,27.6911522 M31.7639881,23.3293612 C31.7828537,20.2373015 31.7620776,15.8382567 31.7630328,13.9051224 C31.7630328,13.8745552 31.7608836,13.8449433 31.7587343,13.8153313 C31.7592119,11.4055403 31.760406,8.99527164 31.7637493,6.5854806 C31.7666149,4.50404776 30.9551522,2.80757015 29.3864358,1.47574925 C28.4464955,0.678137313 27.3716299,0.22440597 26.1926448,0.0684656716 C26.1802269,0.0667940299 26.1675701,0.0656 26.155391,0.0641671642 C25.9937194,0.0436298507 25.8303761,0.0278686567 25.6651224,0.0185552239 C25.5724657,0.0133014925 25.4795701,0.00971940299 25.3864358,0.00804776119 C25.3398687,0.00709253731 25.2947343,0.00255522388 25.2479284,0.00279402985 C22.1269731,0.00327164179 19.0055403,0.00374925373 15.8845851,0.00374925373 C12.7626746,0.00374925373 9.64076418,0.00327164179 6.51909254,0.00279402985 C6.47061493,0.00255522388 6.42380896,0.00733134328 6.37557015,0.00804776119 C6.28697313,0.00995820896 6.19885373,0.0133014925 6.11097313,0.0183164179 C4.71897313,0.0940179104 3.46046567,0.558734328 2.37986866,1.47574925 C0.810674627,2.80757015 -0.00102686567,4.50404776 0.00183880597,6.5854806 C0.00589850746,9.39574925 0.00780895522,12.2060179 0.00780895522,15.0162866 C0.00494328358,16.9033313 -0.00437014925,19.7458388 0.00279402985,22.1525254 C0.00136119403,23.1266149 0.00183880597,24.1004657 -7.1641791e-05,25.0743164 C-0.000788059701,25.392406 0.0202268657,25.7026149 0.0553313433,26.0080478 C0.159689552,27.402197 0.728286567,28.5742567 1.63407761,29.5607642 C1.64100299,29.5686448 1.64840597,29.5760478 1.65533134,29.5836896 C1.70930149,29.6419582 1.76303284,29.7002269 1.81915224,29.7570627 C2.30130149,30.2623761 2.84506269,30.6867343 3.46046567,31.015809 C3.54452537,31.0611821 3.63025672,31.1015403 3.71598806,31.1426149 C3.7735403,31.1700776 3.83061493,31.1984955 3.88936119,31.2242866 C3.97557015,31.2620179 4.06273433,31.2973612 4.15013731,31.330794 C4.19168955,31.3472716 4.23157015,31.3658985 4.2736,31.3811821 C4.33616716,31.4041075 4.39873433,31.4239284 4.4615403,31.4444657 C4.47562985,31.449003 4.4897194,31.4542567 4.50404776,31.4585552 C4.66428657,31.5096597 4.82524179,31.5526448 4.98739104,31.5889433 C4.99479403,31.5908537 5.00267463,31.5925254 5.01007761,31.594197 C5.17055522,31.6295403 5.33151045,31.6596299 5.4936597,31.682794 C5.52136119,31.6866149 5.5495403,31.6897194 5.57724179,31.6935403 C5.70333134,31.7097791 5.82989851,31.7231522 5.95718209,31.7331821 C6.02667463,31.7386746 6.09664478,31.7432119 6.16661493,31.746794 C6.28339104,31.753003 6.40064478,31.7568239 6.51789851,31.7584955 C6.54440597,31.7587343 6.56995821,31.7611224 6.59646567,31.7611224 C9.62237612,31.7606448 12.6482866,31.7611224 15.674197,31.7611224 L15.8845851,31.7611224 L16.0947343,31.7611224 C19.1213612,31.7611224 22.1475104,31.7606448 25.1741373,31.7611224 C25.2018388,31.7611224 25.2285851,31.7587343 25.2560478,31.7584955 C25.3685254,31.7565851 25.4805254,31.753003 25.5920478,31.7472716 C25.6725254,31.7432119 25.7525254,31.7377194 25.8322866,31.7312716 C25.9454806,31.7219582 26.058197,31.7102567 26.1709134,31.6959284 C26.2093612,31.6906746 26.2482866,31.6866149 26.2864955,31.6811224 C26.4374209,31.6591522 26.587391,31.6312119 26.7366448,31.5984955 C26.7590925,31.5937194 26.7817791,31.5887045 26.8039881,31.5834507 C26.951809,31.5495403 27.0984358,31.5106149 27.2441075,31.465003 C27.2839881,31.4525851 27.3231522,31.4380179 27.362794,31.4251224 C27.4062567,31.4103164 27.4499582,31.3971821 27.4929433,31.3811821 C27.5218388,31.3706746 27.5490627,31.3577791 27.5777194,31.346794 C27.6906746,31.3042866 27.8029134,31.2586746 27.9139582,31.209003 C27.9318687,31.2008836 27.9493015,31.1922866 27.9672119,31.1841672 C28.0923463,31.1266149 28.2167642,31.0664358 28.3385552,30.9995701 C28.3803463,30.9768836 28.4197493,30.9510925 28.4608239,30.9279284 C28.5501373,30.8761075 28.6401672,30.8269134 28.727809,30.7698388 C29.1481075,30.5011821 29.531391,30.183809 29.8831522,29.8246448 C30.9670925,28.754794 31.6395701,27.4554507 31.7241075,25.8752716 C31.7491821,25.6123463 31.7663761,25.3465552 31.7656597,25.0743164 C31.7647045,24.4925851 31.7649433,23.9110925 31.7639881,23.3293612" id="Fill-9" fill="#FEFEFE" mask="url(#mask-2)"></path>
                </g>
            </g>
        </g>
    </g>
</svg>