<?xml version="1.0" encoding="UTF-8"?>
<svg width="175px" height="117px" viewBox="0 0 175 117" version="1.1" xmlns="http://www.w3.org/2000/svg" xmlns:xlink="http://www.w3.org/1999/xlink">
    <!-- Generator: Sketch 41.2 (35397) - http://www.bohemiancoding.com/sketch -->
    <title>Page 1</title>
    <desc>Created with Sketch.</desc>
    <defs>
        <polygon id="path-1" points="75.4535662 0.486642857 0.486011029 0.486642857 0.486011029 50.2628786 75.4535662 50.2628786 75.4535662 0.486642857"></polygon>
        <polygon id="path-3" points="0.000128676471 13.5 11.909136 13.5 11.909136 0.0896785714 0.000128676471 0.0896785714"></polygon>
        <polygon id="path-5" points="0.642417279 13.5 12.5514246 13.5 12.5514246 0.0896785714 0.642417279 0.0896785714"></polygon>
    </defs>
    <g id="Page-1" stroke="none" stroke-width="1" fill="none" fill-rule="evenodd">
        <g id="login" transform="translate(-632.000000, -300.000000)">
            <g id="Page-1" transform="translate(632.000000, 300.000000)">
                <path d="M103.355322,79.0991357 C95.7556893,83.4834214 86.8892371,84.6450643 78.3895129,82.3687071 C69.8891452,80.0929929 62.7913511,74.6576357 58.4041268,67.0642071 C54.0162592,59.4707786 52.8543107,50.6115643 55.1318842,42.1181357 C57.4088143,33.62535 62.8492555,26.5339929 70.4488879,22.1497071 C75.6184651,19.1674929 81.2673621,17.7512786 86.8467739,17.7512786 C98.2275643,17.7512786 109.312399,23.64885 115.400083,34.1846357 C124.472417,49.8857786 119.069292,70.0342071 103.355322,79.0991357 M120.975634,30.9677786 C115.729494,21.8887071 107.243281,15.3894214 97.0804136,12.66885 C86.9169026,9.94763571 76.3158915,11.3362071 67.2294026,16.5780643 C58.1422702,21.8205643 51.638318,30.29985 48.9155239,40.4544214 C46.1920864,50.6089929 47.5817923,61.20135 52.8285754,70.2810643 C58.0747151,79.3601357 66.5602849,85.8594214 76.7231526,88.5799929 C80.1240717,89.4902786 83.5719577,89.9409214 86.996682,89.9409214 C93.8094577,89.9402786 100.527656,88.1582786 106.574164,84.6701357 C115.661296,79.4282786 122.165892,70.9489929 124.888686,60.7944214 C127.61148,50.63985 126.222417,40.0474929 120.975634,30.9677786" id="Fill-1" fill="#00A4E4"></path>
                <path d="M82.3838235,42.5789357 C84.2213235,41.5182214 86.3888787,41.1260786 88.4824449,41.4732214 C91.6671875,42.0003643 94.8461397,40.8232929 96.7827206,38.4003643 L97.2517463,37.8140786 L96.9622243,37.5922929 C91.341636,33.2812929 83.6261949,33.0614357 77.7636949,37.04265 C70.9000919,41.7052929 68.6321691,50.7670071 72.4898897,58.1212929 C74.5783088,62.1025071 78.1085478,64.9850786 82.4301471,66.2373643 C83.9517463,66.6777214 85.4984375,66.8962929 87.0329044,66.8962929 C89.8599265,66.8962929 92.6470588,66.1557214 95.1671875,64.7015786 C100.985294,61.3452214 104.128217,54.8722929 103.175368,48.2110071 L103.097518,47.8587214 L102.741085,47.9120786 C99.5241728,48.3993643 96.7827206,50.6615786 95.5860294,53.8154357 C94.7007353,56.1490071 92.9430147,57.9875786 90.636489,58.9923643 C86.7523897,60.6850071 82.1084559,59.4385071 79.5934743,56.0294357 C78.0088235,53.8803643 77.4355699,51.2665071 77.9785846,48.6687214 C78.5151654,46.1037214 80.1210478,43.8839357 82.3838235,42.5789357" id="Fill-3" fill="#00A4E4"></path>
                <path d="M114.686893,46.1037857 L114.331746,46.1577857 C111.01318,46.6598571 108.470533,49.3322143 108.149485,52.6564286 C107.436618,60.0274286 103.069982,66.4206429 96.4675919,69.7570714 C91.7599632,72.1362857 86.3330331,72.6769286 81.1898346,71.2787143 C76.046636,69.8811429 71.6413971,66.6687857 68.7867096,62.2343571 C65.5781618,57.2515714 64.5802757,51.3366429 65.9770588,45.5805 C67.3744853,39.8179286 70.9658456,35.0170714 76.0884559,32.0618571 C82.0217279,28.6392857 89.3118934,28.2735 95.5919485,31.0827857 C98.6454412,32.4488571 102.240662,31.5739286 104.333585,28.9549286 L104.558768,28.6727143 L104.275037,28.4502857 C94.8121691,21.0278571 81.6575735,20.3978571 71.540386,26.8810714 C65.6753125,30.6398571 61.428989,36.4416429 59.583125,43.218 C57.7366176,49.9956429 58.4552757,57.1467857 61.6065625,63.3548571 C65.1554596,70.3465714 71.2476471,75.4251429 78.7617096,77.6571429 C81.4504044,78.4555714 84.1828493,78.8509286 86.8947059,78.8509286 C91.7715441,78.8509286 96.5801838,77.5722857 100.933952,75.0606429 C111.029908,69.2357143 116.449118,58.0088571 114.739007,46.4586429 L114.686893,46.1037857 Z" id="Fill-5" fill="#00A4E4"></path>
                <g id="Group-9" transform="translate(86.213235, 0.156214)">
                    <mask id="mask-2" fill="white">
                        <use xlink:href="#path-1"></use>
                    </mask>
                    <g id="Clip-8"></g>
                    <path d="M65.7088971,15.8153786 L57.1017279,19.5593786 L56.3747059,18.3013071 L56.152739,17.9175214 L55.4263603,16.65945 L62.9745221,11.0833071 L64.0946507,0.48645 C64.0946507,0.48645 56.8553125,4.66245 54.0392279,6.28695 C51.7417096,7.61252143 51.3370221,14.5232357 51.2656066,17.0245929 C46.2639522,17.2090929 38.2705699,19.4500929 31.0865625,23.59395 C21.1231434,29.3417357 13.5305882,35.1441643 15.0521875,40.4078786 L0.486011029,50.2628786 L16.279761,42.6013071 C20.020386,46.6911643 28.9215809,43.0255929 38.9660662,37.2308786 C46.133989,33.0960214 51.988125,27.1868786 54.6549449,22.9498071 C56.8122059,24.1172357 63.0826103,27.2813786 65.3981434,25.9455214 C68.2148713,24.3210214 75.4535662,20.1450214 75.4535662,20.1450214 L65.7088971,15.8153786 Z" id="Fill-7" fill="#5A5A5F" mask="url(#mask-2)"></path>
                </g>
                <g id="Group-12" transform="translate(0.000000, 103.013357)">
                    <mask id="mask-4" fill="white">
                        <use xlink:href="#path-3"></use>
                    </mask>
                    <g id="Clip-11"></g>
                    <path d="M8.94957721,6.59989286 C8.94957721,3.82017857 7.93946691,2.33325 5.94305147,2.33325 C3.92283088,2.33325 2.93652574,3.82017857 2.93652574,6.57546429 L2.93652574,6.96567857 C2.93652574,9.69653571 3.92283088,11.25675 5.94305147,11.25675 C7.93946691,11.25675 8.94957721,9.67210714 8.94957721,6.96567857 L8.94957721,6.59989286 Z M0.000128676471,6.57546429 C0.000128676471,2.28439286 2.09047794,0.0896785714 5.94305147,0.0896785714 C9.79498162,0.0896785714 11.909136,2.28439286 11.909136,6.57546429 L11.909136,6.99010714 C11.909136,11.2811786 9.79498162,13.5003214 5.94305147,13.5003214 C2.09047794,13.5003214 0.000128676471,11.2811786 0.000128676471,6.99010714 L0.000128676471,6.57546429 Z" id="Fill-10" fill="#040100" mask="url(#mask-4)"></path>
                </g>
                <g id="Group-15" transform="translate(13.511029, 103.013357)" fill="#040100">
                    <path d="M9.53280331,1.67470714 C9.43886949,2.25970714 9.36809743,2.47956429 8.8514614,2.45513571 C8.07618566,2.38185 7.67664522,2.33299286 6.7842739,2.33299286 C4.3413511,2.33299286 3.19034007,3.72285 3.19034007,6.62406429 L3.19034007,6.98985 C3.19034007,9.93992143 4.38831801,11.2571357 6.87820772,11.2571357 C7.67664522,11.2571357 8.38179228,11.18385 8.94539522,11.1105643 C9.34493566,11.0861357 9.50899816,11.30535 9.57977022,11.9154214 L9.62673713,12.3294214 C9.69686581,12.9150643 9.4858364,13.1587071 8.89842831,13.2564214 C7.55954963,13.4512071 6.66717831,13.5000643 6.17370404,13.5000643 C2.15706801,13.5000643 0.254586397,11.4274929 0.254586397,6.86835 L0.254586397,6.59963571 C0.254586397,2.21085 2.25100184,0.0900642857 6.12673713,0.0900642857 C7.2069761,0.0900642857 7.98225184,0.162707143 8.89842831,0.333707143 C9.39190257,0.431421429 9.72067096,0.601778571 9.60293199,1.26006429 L9.53280331,1.67470714 Z" id="Fill-13"></path>
                </g>
                <g id="Group-18" transform="translate(23.805147, 103.013357)" fill="#040100">
                    <path d="M9.8095864,1.67470714 C9.71565257,2.25970714 9.64488051,2.47956429 9.12824449,2.45513571 C8.35296875,2.38185 7.95407169,2.33299286 7.06105699,2.33299286 C4.61813419,2.33299286 3.46776654,3.72285 3.46776654,6.62406429 L3.46776654,6.98985 C3.46776654,9.93992143 4.66574449,11.2571357 7.15499081,11.2571357 C7.95407169,11.2571357 8.65857537,11.18385 9.22217831,11.1105643 C9.62171875,11.0861357 9.78642463,11.30535 9.85655331,11.9154214 L9.90352022,12.3294214 C9.97429228,12.9150643 9.76261949,13.1587071 9.17585478,13.2564214 C7.83633272,13.4512071 6.9439614,13.5000643 6.45048713,13.5000643 C2.4338511,13.5000643 0.531369485,11.4274929 0.531369485,6.86835 L0.531369485,6.59963571 C0.531369485,2.21085 2.52778493,0.0900642857 6.40352022,0.0900642857 C7.48440257,0.0900642857 8.25903493,0.162707143 9.17585478,0.333707143 C9.66868566,0.431421429 9.99745404,0.601778571 9.87971507,1.26006429 L9.8095864,1.67470714 Z" id="Fill-16"></path>
                </g>
                <path d="M53.8633915,115.269814 C53.8633915,115.976957 53.5577849,116.269457 52.9002482,116.269457 L52.0072335,116.269457 C51.3496967,116.269457 51.0678952,115.976957 51.0678952,115.269814 L51.0678952,108.3456 C51.0678952,106.614386 50.3633915,105.4926 48.6957445,105.4926 C47.897307,105.4926 46.7694577,105.931671 46.2528217,106.297457 L46.2528217,115.269814 C46.2528217,115.976957 45.9472151,116.269457 45.2896783,116.269457 L44.397307,116.269457 C43.7391268,116.269457 43.4341636,115.976957 43.4341636,115.269814 L43.4341636,107.2971 C43.3633915,106.199743 42.6350827,105.4926 41.0851746,105.4926 C40.2860937,105.4926 39.1357261,105.809529 38.6184467,106.0776 L38.6184467,115.269814 C38.6184467,115.976957 38.3366452,116.269457 37.6791085,116.269457 L36.7860937,116.269457 C36.128557,116.269457 35.8235937,115.976957 35.8235937,115.269814 L35.8235937,105.4926 C35.8235937,104.809886 36.1053952,104.3226 36.762932,104.102743 C37.796204,103.615457 39.4876562,103.1031 41.3438143,103.1031 C42.8705607,103.1031 44.0209283,103.420029 44.8193658,104.005671 C46.0881158,103.468886 47.6148621,103.1031 48.9537408,103.1031 C52.3836121,103.1031 53.8633915,105.053529 53.8633915,108.076886 L53.8633915,115.269814 Z" id="Fill-19" fill="#020000"></path>
                <path d="M56.4716636,104.346643 C56.4716636,103.6395 56.7772702,103.347 57.434807,103.347 L58.3040165,103.347 C58.9847151,103.347 59.2671599,103.6395 59.2671599,104.346643 L59.2671599,111.490714 C59.2671599,113.099786 60.0424357,114.123857 61.7808548,114.123857 C62.649421,114.123857 63.8242371,113.929071 64.3640349,113.733643 L64.3640349,104.346643 C64.3640349,103.6395 64.6458364,103.347 65.3040165,103.347 L66.1963879,103.347 C66.8539246,103.347 67.1595312,103.6395 67.1595312,104.346643 L67.1595312,114.660643 C67.1595312,115.343357 66.783796,115.757357 66.2195496,115.8795 C65.5626562,116.123143 63.2606342,116.513357 61.6393107,116.513357 C57.9752482,116.513357 56.4716636,114.708857 56.4716636,111.783214 L56.4716636,104.346643 Z" id="Fill-21" fill="#020000"></path>
                <path d="M80.59625,115.269814 C80.59625,115.976957 80.3144485,116.269457 79.6562684,116.269457 L78.7638971,116.269457 C78.1063603,116.269457 77.8007537,115.976957 77.8007537,115.269814 L77.8007537,108.247886 C77.8007537,106.565529 77.0730882,105.4926 75.3578309,105.4926 C74.4422978,105.4926 73.1497426,105.809529 72.5861397,106.0776 L72.5861397,115.269814 C72.5861397,115.976957 72.3043382,116.269457 71.6468015,116.269457 L70.7544301,116.269457 C70.09625,116.269457 69.7912868,115.976957 69.7912868,115.269814 L69.7912868,105.4926 C69.7912868,104.809886 70.1200551,104.370814 70.730625,104.078314 C71.7175735,103.591029 73.6432169,103.1031 75.6164706,103.1031 C79.1164706,103.1031 80.59625,104.956457 80.59625,107.833243 L80.59625,115.269814 Z" id="Fill-23" fill="#020000"></path>
                <path d="M85.8117004,109.978971 C85.8117004,112.953471 86.9395496,114.270043 89.1000276,114.270043 C89.8753033,114.270043 90.8616085,114.075257 91.284954,113.928686 L91.284954,106.1019 C90.579807,105.6879 89.7344026,105.492471 88.9359651,105.492471 C86.7748438,105.492471 85.8117004,107.004471 85.8117004,109.7109 L85.8117004,109.978971 Z M91.284954,103.858971 L91.284954,99.2754 C91.284954,98.5682571 91.5899173,98.2757571 92.2480974,98.2757571 L93.1166636,98.2757571 C93.7980055,98.2757571 94.079807,98.5682571 94.079807,99.2754 L94.079807,114.831257 C94.079807,115.513329 93.9858732,115.855329 93.1166636,116.001257 C92.5768658,116.147829 90.6267739,116.489186 88.982932,116.489186 C85.3420313,116.489186 82.8759467,114.9039 82.8759467,110.0034 L82.8759467,109.686471 C82.8759467,105.5169 84.5197886,103.102971 88.1375276,103.102971 C89.2647335,103.102971 90.3925827,103.371686 91.284954,103.858971 L91.284954,103.858971 Z" id="Fill-25" fill="#020000"></path>
                <path d="M101.456572,114.831 C101.550506,115.489286 101.456572,115.903929 100.846002,116.074286 C100.399494,116.220857 99.999954,116.269714 99.5071232,116.269714 C97.8394761,116.269714 96.7817555,115.635857 96.7817555,112.807286 L96.7817555,104.346643 C96.7817555,103.6395 97.0642004,103.347 97.7448989,103.347 L98.6147518,103.347 C99.2954504,103.347 99.5772518,103.6395 99.5772518,104.346643 L99.5772518,112.782857 C99.5772518,113.684786 99.7651195,114.026143 100.328722,114.026143 C100.517233,114.026143 100.752068,113.9535 100.916131,113.929071 C101.17477,113.880214 101.338833,114.123857 101.409605,114.684429 L101.456572,114.831 Z M97.6747702,101.664643 C96.9934283,101.664643 96.7116268,101.347714 96.7116268,100.665 L96.7116268,99.5432143 C96.7116268,98.8360714 96.9934283,98.5435714 97.6747702,98.5435714 L98.7080423,98.5435714 C99.3893842,98.5435714 99.6711857,98.8360714 99.6711857,99.5432143 L99.6711857,100.665 C99.6711857,101.347714 99.3893842,101.664643 98.7080423,101.664643 L97.6747702,101.664643 Z" id="Fill-27" fill="#020000"></path>
                <path d="M105.332822,112.514657 C105.332822,113.928943 106.342932,114.538371 108.128318,114.538371 C109.137785,114.538371 109.889899,114.319157 110.242472,114.221443 L110.242472,111.0033 C109.819127,110.734586 108.879789,110.490943 107.869678,110.490943 C106.155064,110.490943 105.332822,111.173657 105.332822,112.368086 L105.332822,112.514657 Z M110.242472,109.076657 L110.242472,107.3943 C110.242472,106.175443 109.701388,105.346157 107.446976,105.346157 C106.131259,105.346157 104.886314,105.566014 104.346517,105.663086 C103.571241,105.809657 103.453502,105.492729 103.336406,104.8833 L103.289439,104.639657 C103.124733,103.810371 103.312601,103.6638 104.064715,103.493443 C105.097987,103.2498 107.024274,103.103229 108.198447,103.103229 C111.863153,103.103229 113.037325,104.346514 113.037325,107.3943 L113.037325,114.684943 C113.037325,115.464729 112.896425,115.684586 112.097987,115.9038 C111.486774,116.123014 109.913061,116.513229 107.939807,116.513229 C104.933281,116.513229 102.396425,115.635729 102.396425,112.661229 L102.396425,112.222157 C102.396425,109.832657 104.087877,108.516086 107.024274,108.516086 C108.174642,108.516086 109.184752,108.710871 110.242472,109.076657 L110.242472,109.076657 Z" id="Fill-29" fill="#020000"></path>
                <path d="M120.413704,115.0992 C120.460671,115.806343 120.296608,115.952914 119.7092,116.074414 C119.30966,116.196557 118.816829,116.269843 118.323355,116.269843 C116.655708,116.269843 115.692564,115.464986 115.692564,112.807414 L115.692564,99.1042714 C115.692564,98.3977714 115.974366,98.1046286 116.631903,98.1046286 L117.524917,98.1046286 C118.182454,98.1046286 118.487417,98.3977714 118.487417,99.1042714 L118.487417,112.782986 C118.487417,113.684914 118.675285,114.026271 119.238888,114.026271 C119.403594,114.026271 119.732362,113.928557 119.850101,113.928557 C120.225836,113.904771 120.366737,114.245486 120.390542,114.708986 L120.413704,115.0992 Z" id="Fill-31" fill="#020000"></path>
                <path d="M123.620901,116.269521 C122.939559,116.269521 122.657757,115.977021 122.657757,115.269879 L122.657757,113.880021 C122.657757,113.197307 122.939559,112.904807 123.620901,112.904807 L124.654173,112.904807 C125.335515,112.904807 125.617316,113.197307 125.617316,113.880021 L125.617316,115.269879 C125.617316,115.977021 125.335515,116.269521 124.654173,116.269521 L123.620901,116.269521 Z" id="Fill-33" fill="#020000"></path>
                <g id="Group-37" transform="translate(127.389706, 103.013357)" fill="#020000">
                    <path d="M9.64378676,1.67470714 C9.54985294,2.25970714 9.47908088,2.47956429 8.96244485,2.45513571 C8.18716912,2.38185 7.78762868,2.33299286 6.89525735,2.33299286 C4.45233456,2.33299286 3.30132353,3.72285 3.30132353,6.62406429 L3.30132353,6.98985 C3.30132353,9.93992143 4.49930147,11.2571357 6.98919118,11.2571357 C7.78762868,11.2571357 8.49277574,11.18385 9.05637868,11.1105643 C9.45591912,11.0861357 9.620625,11.30535 9.69075368,11.9154214 L9.73772059,12.3294214 C9.80784926,12.9150643 9.59681985,13.1587071 9.00941176,13.2564214 C7.67053309,13.4512071 6.77816176,13.5000643 6.2846875,13.5000643 C2.26805147,13.5000643 0.365569853,11.4274929 0.365569853,6.86835 L0.365569853,6.59963571 C0.365569853,2.21085 2.36198529,0.0900642857 6.23772059,0.0900642857 C7.31795956,0.0900642857 8.09323529,0.162707143 9.00941176,0.333707143 C9.50288603,0.431421429 9.83165441,0.601778571 9.71391544,1.26006429 L9.64378676,1.67470714 Z" id="Fill-35"></path>
                </g>
                <g id="Group-40" transform="translate(137.683824, 103.013357)">
                    <mask id="mask-6" fill="white">
                        <use xlink:href="#path-5"></use>
                    </mask>
                    <g id="Clip-39"></g>
                    <path d="M9.59186581,6.59989286 C9.59186581,3.82017857 8.58175551,2.33325 6.58534007,2.33325 C4.56511949,2.33325 3.57881434,3.82017857 3.57881434,6.57546429 L3.57881434,6.96567857 C3.57881434,9.69653571 4.56511949,11.25675 6.58534007,11.25675 C8.58175551,11.25675 9.59186581,9.67210714 9.59186581,6.96567857 L9.59186581,6.59989286 Z M0.642417279,6.57546429 C0.642417279,2.28439286 2.73276654,0.0896785714 6.58534007,0.0896785714 C10.4379136,0.0896785714 12.5514246,2.28439286 12.5514246,6.57546429 L12.5514246,6.99010714 C12.5514246,11.2811786 10.4379136,13.5003214 6.58534007,13.5003214 C2.73276654,13.5003214 0.642417279,11.2811786 0.642417279,6.99010714 L0.642417279,6.57546429 Z" id="Fill-38" fill="#020000" mask="url(#mask-6)"></path>
                </g>
                <path d="M170.507197,115.269814 C170.507197,115.976957 170.20159,116.269457 169.544053,116.269457 L168.651682,116.269457 C167.994145,116.269457 167.7117,115.976957 167.7117,115.269814 L167.7117,108.3456 C167.7117,106.614386 167.007197,105.4926 165.33955,105.4926 C164.541112,105.4926 163.413263,105.931671 162.896627,106.297457 L162.896627,115.269814 C162.896627,115.976957 162.591664,116.269457 161.933483,116.269457 L161.041112,116.269457 C160.383575,116.269457 160.077969,115.976957 160.077969,115.269814 L160.077969,107.2971 C160.007197,106.199743 159.278888,105.4926 157.72898,105.4926 C156.930542,105.4926 155.779531,105.809529 155.262252,106.0776 L155.262252,115.269814 C155.262252,115.976957 154.98045,116.269457 154.322914,116.269457 L153.430542,116.269457 C152.772362,116.269457 152.467399,115.976957 152.467399,115.269814 L152.467399,105.4926 C152.467399,104.809886 152.7492,104.3226 153.406737,104.102743 C154.440653,103.615457 156.131461,103.1031 157.987619,103.1031 C159.514366,103.1031 160.665377,103.420029 161.463814,104.005671 C162.731921,103.468886 164.258667,103.1031 165.598189,103.1031 C169.027417,103.1031 170.507197,105.053529 170.507197,108.076886 L170.507197,115.269814 Z" id="Fill-41" fill="#020000"></path>
                <path d="M172.845312,104.318743 L173.018382,104.318743 C173.223621,104.318743 173.390901,104.248029 173.390901,104.0751 C173.390901,103.924029 173.282812,103.824386 173.049908,103.824386 C172.951471,103.824386 172.885202,103.833386 172.845312,103.843029 L172.845312,104.318743 Z M172.836305,105.260529 L172.463787,105.260529 L172.463787,103.600029 C172.611121,103.570457 172.81636,103.549243 173.077574,103.549243 C173.38125,103.549243 173.51636,103.600029 173.633456,103.672671 C173.721599,103.743386 173.789798,103.873243 173.789798,104.035243 C173.789798,104.217171 173.653401,104.359243 173.459099,104.420957 L173.459099,104.440243 C173.613511,104.501314 173.702298,104.621529 173.751838,104.8446 C173.800092,105.0966 173.828401,105.198171 173.868934,105.260529 L173.467463,105.260529 C173.41921,105.198171 173.390901,105.047743 173.342004,104.854886 C173.312408,104.672314 173.214614,104.5926 173.010662,104.5926 L172.836305,104.5926 L172.836305,105.260529 Z M171.85,104.389457 C171.85,105.128743 172.37693,105.714386 173.098162,105.714386 C173.800092,105.714386 174.316085,105.128743 174.316085,104.399743 C174.316085,103.661743 173.800092,103.065814 173.086581,103.065814 C172.37693,103.065814 171.85,103.661743 171.85,104.389457 L171.85,104.389457 Z M174.723346,104.389457 C174.723346,105.329314 174.013695,106.0686 173.086581,106.0686 C172.174265,106.0686 171.441452,105.329314 171.441452,104.389457 C171.441452,103.468886 172.174265,102.730886 173.086581,102.730886 C174.013695,102.730886 174.723346,103.468886 174.723346,104.389457 L174.723346,104.389457 Z" id="Fill-43" fill="#5A5A5F"></path>
            </g>
        </g>
    </g>
</svg>