<?xml version="1.0" encoding="UTF-8"?>
<svg width="32px" height="32px" viewBox="0 0 32 32" version="1.1" xmlns="http://www.w3.org/2000/svg" xmlns:xlink="http://www.w3.org/1999/xlink">
    <!-- Generator: Sketch 41.2 (35397) - http://www.bohemiancoding.com/sketch -->
    <title>successors</title>
    <desc>Created with Sketch.</desc>
    <defs></defs>
    <g id="Page-1" stroke="none" stroke-width="1" fill="none" fill-rule="evenodd">
        <g id="Desktop-HD" transform="translate(-92.000000, -553.000000)" fill="#FEFEFE">
            <g id="successors" transform="translate(92.000000, 553.000000)">
                <g id="Group-3" transform="translate(0.000000, 0.236179)">
                    <path d="M27.9331343,27.6911522 C27.6040597,28.0407642 27.1916418,28.3349731 26.6937313,28.569003 C26.249791,28.7777194 25.7110448,28.8682269 25.2152836,28.8696597 C22.1050746,28.8794507 18.9946269,28.8849433 15.8844179,28.8861373 C12.7734925,28.8849433 9.66256716,28.8794507 6.55164179,28.8696597 C6.0558806,28.8682269 5.51689552,28.7777194 5.07295522,28.569003 C4.61779104,28.3550328 4.23259701,28.0916299 3.91808955,27.7809433 C3.63534328,27.4771821 3.39128358,27.115391 3.18853731,26.6962866 C3.18137313,26.6812418 3.17540299,26.6652418 3.16823881,26.6499582 C2.98602985,26.1952716 2.8921791,25.6854209 2.8919403,25.1189731 C2.89074627,18.9561075 2.89050746,12.793003 2.8921791,6.63013731 C2.89241791,5.80195821 3.08776119,5.03276418 3.60238806,4.3614806 C4.15689552,3.63837612 4.8439403,3.20255522 5.64776119,3.00530149 C6.04131343,2.94082388 6.4401194,2.88637612 6.83677612,2.8856597 C9.85265672,2.88112239 12.8685373,2.88016716 15.8844179,2.87992836 C18.9010149,2.88016716 21.9176119,2.88112239 24.9337313,2.8856597 C25.3270448,2.88637612 25.7222687,2.93986866 26.1127164,3.00362985 C26.9189254,3.19992836 27.6081194,3.63646567 28.1640597,4.3614806 C28.6786866,5.03276418 28.873791,5.80195821 28.8740299,6.63013731 C28.8759403,12.793003 28.8754627,18.9561075 28.8742687,25.1189731 C28.8742687,25.7136 28.7720597,26.2470925 28.5714627,26.7182567 C28.3904478,27.0876896 28.1769552,27.4122269 27.9331343,27.6911522 M31.7640597,23.3293612 C31.7829254,20.2373015 31.7619104,15.8382567 31.7631045,13.9048836 C31.7631045,13.8745552 31.7609552,13.8449433 31.7585672,13.8153313 C31.7592836,11.4055403 31.7604776,8.99527164 31.7638209,6.5854806 C31.7666866,4.50404776 30.9549851,2.80757015 29.3862687,1.47574925 C28.4465672,0.678137313 27.3717015,0.22440597 26.1927164,0.0684656716 C26.1802985,0.0667940299 26.1676418,0.0656 26.1552239,0.0641671642 C25.993791,0.0436298507 25.8304478,0.0278686567 25.665194,0.0185552239 C25.5725373,0.0133014925 25.4796418,0.00971940299 25.3862687,0.00804776119 C25.3399403,0.00709253731 25.2945672,0.00255522388 25.248,0.00279402985 C22.126806,0.00327164179 19.0056119,0.00374925373 15.8844179,0.00374925373 C12.7627463,0.00374925373 9.64083582,0.00327164179 6.51916418,0.00279402985 C6.47068657,0.00255522388 6.4238806,0.00733134328 6.37564179,0.00804776119 C6.28704478,0.00995820896 6.19892537,0.0133014925 6.11104478,0.0183164179 C4.71904478,0.0940179104 3.46029851,0.558734328 2.3799403,1.47574925 C0.810746269,2.80757015 -0.000955223881,4.50404776 0.00191044776,6.5854806 C0.00597014925,9.39574925 0.00764179104,12.2060179 0.00788059701,15.0162866 C0.0047761194,16.9033313 -0.00453731343,19.7458388 0.00262686567,22.1525254 C0.00143283582,23.1266149 0.00191044776,24.1004657 -3.38813179e-21,25.0743164 C-0.00071641791,25.392406 0.0202985075,25.7026149 0.0554029851,26.0080478 C0.159761194,27.402197 0.728358209,28.5742567 1.63414925,29.5607642 C1.64083582,29.5686448 1.64847761,29.5760478 1.65540299,29.5836896 C1.70913433,29.6419582 1.76310448,29.7002269 1.81922388,29.7570627 C2.30137313,30.2623761 2.84489552,30.6867343 3.46029851,31.015809 C3.54459701,31.0611821 3.63032836,31.1015403 3.7160597,31.1426149 C3.77337313,31.1700776 3.83068657,31.1984955 3.88943284,31.2242866 C3.97564179,31.2620179 4.06256716,31.2973612 4.15020896,31.330794 C4.19176119,31.3472716 4.23140299,31.3658985 4.27367164,31.3811821 C4.336,31.4041075 4.39880597,31.4239284 4.46161194,31.4444657 C4.47570149,31.449003 4.48979104,31.4542567 4.5041194,31.4585552 C4.66435821,31.5096597 4.82531343,31.5526448 4.98746269,31.5889433 C4.99486567,31.5908537 5.00250746,31.5925254 5.01014925,31.594197 C5.17038806,31.6295403 5.33158209,31.6596299 5.49373134,31.682794 C5.52143284,31.6866149 5.54961194,31.6897194 5.57707463,31.6935403 C5.70340299,31.7097791 5.82997015,31.7231522 5.95725373,31.7331821 C6.02674627,31.7386746 6.09671642,31.7432119 6.16668657,31.746794 C6.28346269,31.753003 6.40047761,31.7568239 6.51797015,31.7584955 C6.54447761,31.7587343 6.57002985,31.7611224 6.59653731,31.7611224 C9.62244776,31.7606448 12.6483582,31.7611224 15.6742687,31.7611224 L15.8844179,31.7611224 L16.094806,31.7611224 C19.121194,31.7611224 22.1475821,31.7606448 25.174209,31.7611224 C25.2016716,31.7611224 25.2286567,31.7587343 25.2561194,31.7584955 C25.368597,31.7565851 25.4803582,31.753003 25.5921194,31.7472716 C25.672597,31.7432119 25.752597,31.7377194 25.8321194,31.7312716 C25.9455522,31.7219582 26.0582687,31.7102567 26.1707463,31.6959284 C26.2094328,31.6906746 26.2481194,31.6866149 26.2865672,31.6811224 C26.4374925,31.6591522 26.5872239,31.6312119 26.7364776,31.5984955 C26.7591642,31.5937194 26.7818507,31.5887045 26.8040597,31.5834507 C26.9516418,31.5495403 27.0985075,31.5106149 27.2441791,31.465003 C27.2840597,31.4525851 27.3232239,31.4380179 27.3628657,31.4251224 C27.4063284,31.4103164 27.449791,31.3971821 27.4927761,31.3811821 C27.5216716,31.3706746 27.5491343,31.3577791 27.5775522,31.346794 C27.6907463,31.3042866 27.8029851,31.2586746 27.9140299,31.209003 C27.9319403,31.2008836 27.9493731,31.1922866 27.9672836,31.1841672 C28.0924179,31.1266149 28.216597,31.0664358 28.3386269,30.9995701 C28.3804179,30.9768836 28.4198209,30.9510925 28.4608955,30.9279284 C28.550209,30.8761075 28.6402388,30.8269134 28.7276418,30.7698388 C29.1481791,30.5011821 29.5314627,30.183809 29.8832239,29.8246448 C30.9671642,28.754794 31.6396418,27.4554507 31.7241791,25.8752716 C31.7492537,25.6123463 31.766209,25.3465552 31.7657313,25.0743164 C31.7645373,24.4925851 31.7650149,23.9110925 31.7640597,23.3293612" id="Fill-1"></path>
                </g>
                <path d="M5,25.2965321 C5.18937313,24.6844724 5.32859701,24.0506814 5.57791045,23.4641739 C6.20334328,21.9936068 7.25002985,20.8795769 8.62292537,20.0669202 C8.77050746,19.9795172 8.87008955,19.9663829 9.01480597,20.0962933 C10.8552836,21.7509799 13.537791,21.7650694 15.4236418,20.1270993 C15.5922388,19.9804724 15.7016119,19.9776068 15.8835821,20.0891291 C17.8981493,21.3256665 19.0883582,23.1093082 19.4618507,25.4407709 C19.5088955,25.7340247 19.3240597,25.9912187 19.0279403,26.0382635 C18.9161791,26.0561739 18.800597,26.052353 18.6866866,26.052353 C14.3826866,26.0528306 10.0784478,26.0502038 5.77420896,26.0580844 C5.46137313,26.058562 5.20298507,25.9955172 5,25.7526515 L5,25.2965321 Z" id="Fill-8" fill-opacity="0.519999981"></path>
                <path d="M12,19.2965321 C12.1893731,18.6844724 12.328597,18.0506814 12.5779104,17.4641739 C13.2033433,15.9936068 14.2500299,14.8795769 15.6229254,14.0669202 C15.7705075,13.9795172 15.8700896,13.9663829 16.014806,14.0962933 C17.8552836,15.7509799 20.537791,15.7650694 22.4236418,14.1270993 C22.5922388,13.9804724 22.7016119,13.9776068 22.8835821,14.0891291 C24.8981493,15.3256665 26.0883582,17.1093082 26.4618507,19.4407709 C26.5088955,19.7340247 26.3240597,19.9912187 26.0279403,20.0382635 C25.9161791,20.0561739 25.800597,20.052353 25.6866866,20.052353 C21.3826866,20.0528306 17.0784478,20.0502038 12.774209,20.0580844 C12.4613731,20.058562 12.2029851,19.9955172 12,19.7526515 L12,19.2965321 Z" id="Fill-8-Copy"></path>
                <path d="M12.1554718,12.0000028 C14.3990539,11.997376 16.2476509,13.8328386 16.2655613,16.0876446 C16.2834718,18.3276446 14.5194121,20.2380924 12.1452031,20.2586297 C9.87177029,20.2784506 7.99523298,18.381376 8.0000091,16.1342118 C8.0043076,13.8390476 9.85027775,12.0026297 12.1554718,12.0000028" id="Fill-10" fill-opacity="0.519999981"></path>
                <path d="M19.1554718,6.00000282 C21.3990539,5.99737595 23.2476509,7.83283864 23.2655613,10.0876446 C23.2834718,12.3276446 21.5194121,14.2380924 19.1452031,14.2586297 C16.8717703,14.2784506 14.995233,12.381376 15.0000091,10.1342118 C15.0043076,7.83904759 16.8502778,6.00262968 19.1554718,6.00000282" id="Fill-10-Copy"></path>
            </g>
        </g>
    </g>
</svg>