<?xml version="1.0" encoding="UTF-8"?>
<svg width="32px" height="32px" viewBox="0 0 32 32" version="1.1" xmlns="http://www.w3.org/2000/svg" xmlns:xlink="http://www.w3.org/1999/xlink">
    <!-- Generator: Sketch 41.2 (35397) - http://www.bohemiancoding.com/sketch -->
    <title>talent</title>
    <desc>Created with Sketch.</desc>
    <defs>
        <polygon id="path-1" points="0 0.0024954427 0 31.0225019 31.0760101 31.0225019 31.0760101 0.0024954427 0 0.0024954427"></polygon>
    </defs>
    <g id="Page-1" stroke="none" stroke-width="1" fill="none" fill-rule="evenodd">
        <g id="Desktop-HD" transform="translate(-95.000000, -213.000000)">
            <g id="talent" transform="translate(95.000000, 213.000000)">
                <path d="M31.189419,8.01095842 C30.7425869,8.46533398 21.9619737,17.229091 21.5109372,17.6795013 C21.0722803,18.1177824 20.6329226,18.5555971 20.1937985,18.9934117 C19.7483679,19.4375242 19.3022365,19.8811701 18.857273,20.3252826 C18.3639591,20.8176783 17.8711124,21.3105405 17.3784993,21.8031695 C16.8856526,22.2960317 16.393273,22.7895936 15.899492,23.2810563 C15.7191708,23.4608939 15.5386161,23.6411979 15.3501197,23.8121719 C15.0866453,24.0512555 14.6498569,24.0484565 14.3875504,23.8079733 C13.7589956,23.2316068 13.1857985,22.5941281 12.5448642,22.0336228 C11.9693314,21.530031 11.4337401,20.9849202 10.9364555,20.4038886 C10.6806891,20.1053257 10.3704993,19.8485148 10.1177693,19.5448203 C9.87882044,19.2579199 9.89376934,18.8394652 10.1521051,18.5698255 C10.517419,18.1889244 10.8897401,17.8143211 11.2728058,17.4513805 C11.5897693,17.1516512 12.0585577,17.1906044 12.3731854,17.5080608 C12.9681051,18.1084523 13.5688642,18.7032458 14.1663533,19.3010716 C14.3733022,19.5077331 14.5809518,19.713695 14.7834628,19.9245551 C14.8285431,19.9714388 14.9028204,19.9723718 14.9490686,19.9264211 C16.6277839,18.2465377 18.3086015,16.5687536 19.989419,14.8909695 C20.3477255,14.5329272 29.0412146,5.86713613 29.3899445,5.49999695 C29.6657985,5.21006428 30.1579445,5.10999903 30.5370394,5.48646831 C30.8965139,5.84334439 31.2552876,6.20068698 31.6033168,6.56829268 C31.7088934,6.67955404 31.7574774,6.84446345 31.8467036,6.97111947 C31.8336234,7.4770438 31.4767182,7.71892648 31.189419,8.01095842" id="Fill-1" fill="#FEFEFE"></path>
                <g id="Group-5" transform="translate(0.000000, 0.230920)">
                    <mask id="mask-2" fill="white">
                        <use xlink:href="#path-1"></use>
                    </mask>
                    <g id="Clip-4"></g>
                    <path d="M15.742108,31.0220251 C12.6645022,31.0222584 9.58689635,31.0231914 6.50975766,31.0215586 C5.71396204,31.0213254 4.93451679,30.9277912 4.18006423,30.6509207 C3.01054599,30.2222028 2.06572847,29.4923563 1.30613723,28.522493 C0.380706569,27.3413032 -0.00282627737,25.9856405 -2.33576642e-05,24.4907263 C0.0116554745,18.4711831 0.010020438,12.4516398 0.00184525547,6.43209663 C-0.000724087591,4.39906921 0.792969343,2.74204457 2.32756788,1.44119625 C3.48750949,0.458270878 4.85486715,0.00202929538 6.37615182,0.00249580007 C12.4823124,0.00342880944 18.5887066,0.00109628601 24.6946336,0.00459507116 C25.5212613,0.00506157584 26.3259328,0.144779729 27.0936993,0.464102187 C27.7993343,0.757533634 27.9133197,1.24759681 27.3915095,1.79317404 C27.0752467,2.12392586 26.7442686,2.44091579 26.4184292,2.76280403 C26.2138161,2.9645673 25.9786044,3.00655272 25.6922394,2.95803624 C25.2615241,2.88502825 24.8231007,2.81901784 24.3879474,2.81831808 C18.4478599,2.80945449 12.5075387,2.81435279 6.56768467,2.81085401 C5.31734891,2.81015425 4.29264818,3.258232 3.52348029,4.25981756 C3.01988905,4.9154899 2.82905693,5.6667957 2.82882336,6.47571482 C2.82695474,12.495258 2.8274219,18.5148012 2.82858978,24.5345777 C2.82882336,26.1050657 3.55524672,27.2440369 4.96207883,27.9043743 C5.39606423,28.1080036 5.92324672,28.1964062 6.40815182,28.1978058 C12.494692,28.2169325 18.5812321,28.2197315 24.6677723,28.2038703 C26.1965314,28.199905 27.2950423,27.4395024 27.956765,26.0752094 C28.1922102,25.5898113 28.2597139,25.0516982 28.2590131,24.5091532 C28.2569109,22.7630262 28.2618161,16.8995288 28.2552759,15.1531685 C28.254108,14.8436426 28.3290861,14.5891643 28.561962,14.3685076 C29.0008526,13.9523854 29.4203562,13.5162035 29.850838,13.091451 C30.0827796,12.8628637 30.3492905,12.8117815 30.6569109,12.9354052 C30.9547212,13.0548304 31.0673051,13.2904153 31.0673051,13.5815142 C31.0659036,16.0497905 31.1014073,22.6359036 31.0383416,25.1025472 C30.9888234,27.0469387 30.0386336,28.5640119 28.5234219,29.7505666 C27.3760934,30.6488214 26.0619912,31.0222584 24.6229255,31.0220251 C21.6625752,31.0215586 18.7024584,31.0220251 15.742108,31.0220251" id="Fill-3" fill="#FEFEFE" mask="url(#mask-2)"></path>
                </g>
            </g>
        </g>
    </g>
</svg>